<?xml version="1.0" encoding="utf-8"?>

<!DOCTYPE svg PUBLIC "-//W3C//DTD SVG 1.1//EN" "http://www.w3.org/Graphics/SVG/1.1/DTD/svg11.dtd">
<svg version="1.1" id="Layer_1" xmlns="http://www.w3.org/2000/svg" xmlns:xlink="http://www.w3.org/1999/xlink" x="0px" y="0px"
	 viewBox="157.9999 7.7848 2244.0002 1584.4305" enable-background="new 157.9999 7.7848 2244.0002 1584.4305" xml:space="preserve"
	>
<g>
	<circle fill="#39B54A" cx="288.4932" cy="783.0468" r="50.1473"/>
	<circle fill="#39B54A" cx="1588.4817" cy="497.2281" r="48.3904"/>
	<circle fill="#39B54A" cx="1848.1489" cy="833.9024" r="49.2855"/>
	<circle fill="#39B54A" cx="1735.3195" cy="789.3989" r="55.5038"/>
	<circle fill="#39B54A" cx="901.0825" cy="898.901" r="53.2501"/>
	<circle fill="#39B54A" cx="1583.8024" cy="1164.087" r="51.8055"/>
	<circle fill="#39B54A" cx="665.0378" cy="651.4603" r="47.5609"/>
	<circle fill="#39B54A" cx="2232.6692" cy="873.8954" r="47.1816"/>
	<circle fill="#39B54A" cx="1801.2977" cy="592.1658" r="47.623"/>
	<circle fill="#39B54A" cx="746.2467" cy="867.4506" r="47.6169"/>
	<circle fill="#39B54A" cx="470.6334" cy="967.156" r="54.8194"/>
	<circle fill="#39B54A" cx="1765.5192" cy="300.6946" r="55.7115"/>
	<circle fill="#39B54A" cx="1122.9154" cy="813.0475" r="47.0686"/>
	<circle fill="#39B54A" cx="1442.4194" cy="330.9342" r="47.819"/>
	<circle fill="#39B54A" cx="1644.8151" cy="307.6339" r="48.1451"/>
	<circle fill="#39B54A" cx="1686.6725" cy="1183.4636" r="52.8735"/>
	<circle fill="#39B54A" cx="2034.4401" cy="830.2979" r="55.4164"/>
	<circle fill="#39B54A" cx="1806.3376" cy="1247.9648" r="51.5393"/>
	<circle fill="#39B54A" cx="1078.2505" cy="708.117" r="47.2573"/>
	<circle fill="#39B54A" cx="1570.5964" cy="199.259" r="53.9126"/>
	<circle fill="#39B54A" cx="1532.3528" cy="407.4138" r="52.3022"/>
	<circle fill="#39B54A" cx="1407.0641" cy="702.7197" r="49.9741"/>
	<circle fill="#39B54A" cx="381.1377" cy="734.0553" r="54.6534"/>
	<circle fill="#39B54A" cx="1620.1342" cy="1382.9377" r="51.933"/>
	<circle fill="#39B54A" cx="1935.2736" cy="983.1804" r="48.6027"/>
	<circle fill="#39B54A" cx="254.4766" cy="954.2657" r="50.0672"/>
	<circle fill="#39B54A" cx="363.9844" cy="983.4769" r="51.8539"/>
	<circle fill="#39B54A" cx="1318.6964" cy="1458.7408" r="48.8502"/>
	<circle fill="#39B54A" cx="2147.8052" cy="596.8652" r="48.6204"/>
	<circle fill="#39B54A" cx="1602.5173" cy="671.4778" r="51.0441"/>
	<circle fill="#39B54A" cx="1433.2046" cy="79.9244" r="48.7043"/>
	<circle fill="#39B54A" cx="606.4099" cy="868.3835" r="50.2509"/>
	<circle fill="#39B54A" cx="378.7346" cy="627.4453" r="51.9838"/>
	<circle fill="#39B54A" cx="1297.1456" cy="105.744" r="47.4368"/>
	<circle fill="#39B54A" cx="1509.7354" cy="860.5317" r="50.0106"/>
	<circle fill="#39B54A" cx="843.076" cy="622.9381" r="49.1869"/>
	<circle fill="#39B54A" cx="734.6041" cy="974.2471" r="51.7041"/>
	<circle fill="#39B54A" cx="1173.0824" cy="1527.5519" r="50.3875"/>
	<circle fill="#39B54A" cx="1732.6272" cy="657.324" r="47.0409"/>
	<circle fill="#39B54A" cx="1612.38" cy="889.8735" r="47.7842"/>
	<circle fill="#39B54A" cx="2255.0376" cy="737.0556" r="56.4204"/>
	<circle fill="#39B54A" cx="840.0099" cy="734.8017" r="52.1207"/>
	<circle fill="#39B54A" cx="1240.2957" cy="706.9543" r="47.8485"/>
	<circle fill="#39B54A" cx="1412.4873" cy="1343.2462" r="47.2663"/>
	<circle fill="#39B54A" cx="2121.4456" cy="733.3506" r="53.6906"/>
	<circle fill="#39B54A" cx="232.7242" cy="703.4518" r="47.0409"/>
	<circle fill="#39B54A" cx="725.5302" cy="724.1938" r="47.0409"/>
	<circle fill="#39B54A" cx="1505.4264" cy="726.9499" r="47.5628"/>
	<circle fill="#39B54A" cx="1472.6931" cy="1446.8146" r="52.9887"/>
	<circle fill="#39B54A" cx="1389.0406" cy="931.385" r="48.765"/>
	<circle fill="#39B54A" cx="1668.6162" cy="966.2234" r="47.0409"/>
	<circle fill="#39B54A" cx="488.2425" cy="663.9055" r="53.2762"/>
	<circle fill="#39B54A" cx="1975.4816" cy="1079.4965" r="49.3678"/>
	<circle fill="#39B54A" cx="521.0161" cy="771.6638" r="52.4187"/>
	<circle fill="#39B54A" cx="1176.1327" cy="65.9021" r="47.0446"/>
	<circle fill="#39B54A" cx="1243.4445" cy="816.4638" r="48.9822"/>
	<circle fill="#39B54A" cx="1909.9071" cy="676.1832" r="49.4192"/>
	<circle fill="#39B54A" cx="1624.1346" cy="1510.0754" r="52.4664"/>
	<circle fill="#39B54A" cx="1473.8893" cy="166.5958" r="47.0409"/>
	<circle fill="#39B54A" cx="1020.327" cy="848.7899" r="47.9922"/>
	<circle fill="#39B54A" cx="1009.7202" cy="990.9986" r="47.0536"/>
	<circle fill="#39B54A" cx="1324.3634" cy="761.3286" r="48.9349"/>
	<circle fill="#39B54A" cx="2080.7344" cy="984.4882" r="49.3023"/>
	<circle fill="#39B54A" cx="1484.8873" cy="1192.5421" r="51.1211"/>
	<circle fill="#39B54A" cx="1969.7397" cy="567.6881" r="48.9549"/>
	<circle fill="#39B54A" cx="1780.3479" cy="1071.4165" r="51.4086"/>
	<circle fill="#39B54A" cx="1418.3859" cy="1530.8182" r="47.0409"/>
	<circle fill="#39B54A" cx="1883.3732" cy="1107.9689" r="47.0409"/>
	<circle fill="#39B54A" cx="1615.5293" cy="101.5085" r="53.6704"/>
	<circle fill="#39B54A" cx="1967.7189" cy="446.4229" r="47.3441"/>
	<circle fill="#39B54A" cx="1291.5314" cy="214.5231" r="49.7929"/>
	<circle fill="#39B54A" cx="2075.969" cy="1088.0236" r="49.8558"/>
	<circle fill="#39B54A" cx="2071.3501" cy="533.4769" r="50.6945"/>
	<circle fill="#39B54A" cx="1731.0062" cy="891.8528" r="47.0409"/>
	<circle fill="#39B54A" cx="2030.5254" cy="675.7552" r="53.5962"/>
	<circle fill="#39B54A" cx="1813.4028" cy="978.6821" r="47.0409"/>
	<circle fill="#39B54A" cx="1824.4714" cy="384.8533" r="47.0409"/>
	<circle fill="#39B54A" cx="1592.8829" cy="1274.9658" r="54.3977"/>
	<circle fill="#39B54A" cx="1888.3444" cy="515.6964" r="47.6285"/>
	<circle fill="#39B54A" cx="989.4178" cy="676.4799" r="47.0409"/>
	<circle fill="#39B54A" cx="1784.765" cy="1347.9706" r="47.9188"/>
	<circle fill="#39B54A" cx="1728.498" cy="522.0447" r="48.0183"/>
	<circle fill="#39B54A" cx="1629.9075" cy="787.0406" r="47.4116"/>
	<circle fill="#39B54A" cx="1954.4136" cy="1210.2505" r="47.2796"/>
	<circle fill="#39B54A" cx="577.0751" cy="968.7924" r="51.635"/>
	<circle fill="#39B54A" cx="1306.5059" cy="622.7657" r="49.0697"/>
	<circle fill="#39B54A" cx="1516.9862" cy="969.0939" r="53.797"/>
	<circle fill="#39B54A" cx="1160.7854" cy="967.601" r="48.8043"/>
	<circle fill="#39B54A" cx="833.3392" cy="972.8547" r="47.0409"/>
	<circle fill="#39B54A" cx="395.0592" cy="837.7226" r="49.9446"/>
	<circle fill="#39B54A" cx="1542.0431" cy="1353.9163" r="31.3763"/>
	<circle fill="#39B54A" cx="1223.1252" cy="1455.1395" r="37.6344"/>
	<circle fill="#39B54A" cx="1362.1992" cy="344.7693" r="33.5854"/>
	<circle fill="#39B54A" cx="1521.2599" cy="87.9647" r="39.7174"/>
	<circle fill="#39B54A" cx="760.9969" cy="638.0388" r="34.2697"/>
	<circle fill="#39B54A" cx="1516.1576" cy="625.5936" r="34.4367"/>
	<circle fill="#39B54A" cx="1388.3322" cy="1268.405" r="31.3763"/>
	<circle fill="#39B54A" cx="1878.0973" cy="305.7196" r="39.777"/>
	<circle fill="#39B54A" cx="1745.0935" cy="205.3849" r="33.5035"/>
	<circle fill="#39B54A" cx="1326.4" cy="289.2052" r="32.5126"/>
	<circle fill="#39B54A" cx="1946.116" cy="812.7258" r="34.6387"/>
	<circle fill="#39B54A" cx="1793.5859" cy="476.5796" r="31.3763"/>
	<circle fill="#39B54A" cx="1709.3019" cy="387.3954" r="31.3763"/>
	<circle fill="#39B54A" cx="293.5895" cy="632.8569" r="33.3333"/>
	<circle fill="#39B54A" cx="1424.4246" cy="808.2675" r="33.9381"/>
	<circle fill="#39B54A" cx="212.4634" cy="613.4929" r="38.7814"/>
	<circle fill="#39B54A" cx="1530.4967" cy="1100.2301" r="31.3763"/>
	<circle fill="#39B54A" cx="937.2535" cy="766.0081" r="33.3544"/>
	<circle fill="#39B54A" cx="643.6168" cy="747.6776" r="37.9796"/>
	<circle fill="#39B54A" cx="1800.2919" cy="702.6265" r="34.389"/>
	<circle fill="#39B54A" cx="928.1796" cy="1006.6306" r="31.4218"/>
	<circle fill="#39B54A" cx="1218.7251" cy="150.7468" r="38.2899"/>
	<circle fill="#39B54A" cx="1329.5427" cy="845.1008" r="34.9972"/>
	<circle fill="#39B54A" cx="1538.8502" cy="305.265" r="33.9944"/>
	<circle fill="#39B54A" cx="1382.0426" cy="231.7615" r="33.9944"/>
	<circle fill="#39B54A" cx="1244.1075" cy="896.8195" r="31.3763"/>
	<circle fill="#39B54A" cx="1063.6246" cy="915.308" r="31.3763"/>
	<circle fill="#39B54A" cx="1953.9731" cy="887.7857" r="40.8314"/>
	<circle fill="#39B54A" cx="1690.2822" cy="1443.5955" r="33.4263"/>
	<circle fill="#39B54A" cx="1053.1835" cy="609.9044" r="33.2284"/>
	<circle fill="#39B54A" cx="1592.3619" cy="576.9003" r="31.3763"/>
	<circle fill="#39B54A" cx="1172.3038" cy="603.0573" r="33.1482"/>
	<circle fill="#39B54A" cx="2167.8674" cy="1004.8459" r="34.9905"/>
	<circle fill="#39B54A" cx="493.5872" cy="884.0729" r="31.3763"/>
	<circle fill="#39B54A" cx="2101.6252" cy="893.7283" r="36.9809"/>
	<circle fill="#39B54A" cx="585.0303" cy="618.5887" r="38.936"/>
	<circle fill="#39B54A" cx="1497.472" cy="1544.5536" r="33.2292"/>
	<circle fill="#39B54A" cx="2347.2449" cy="773.8849" r="39.0731"/>
	<circle fill="#39B54A" cx="2030.6748" cy="921.2183" r="31.3763"/>
	<circle fill="#39B54A" cx="1490.0944" cy="1286.8809" r="43.3612"/>
	<circle fill="#39B54A" cx="832.1791" cy="843.3638" r="35.2487"/>
	<circle fill="#39B54A" cx="1628.7925" cy="420.5939" r="38.1992"/>
	<circle fill="#39B54A" cx="2168.812" cy="924.6329" r="34.3786"/>
	<circle fill="#39B54A" cx="1283.3447" cy="981.2807" r="33.9624"/>
	<circle fill="#39B54A" cx="569.2857" cy="696.8488" r="34.2068"/>
	<circle fill="#39B54A" cx="1857.118" cy="1182.4183" r="31.3763"/>
	<circle fill="#39B54A" cx="1678.5839" cy="1271.4282" r="31.3763"/>
	<circle fill="#39B54A" cx="1382.3304" cy="152.8605" r="40.2215"/>
	<circle fill="#39B54A" cx="2120.5938" cy="819.7853" r="31.3763"/>
	<circle fill="#39B54A" cx="302.8705" cy="876.4794" r="41.5445"/>
	<circle fill="#39B54A" cx="1851.7424" cy="1039.038" r="24.4628"/>
	<circle fill="#39B54A" cx="1670.4253" cy="467.6245" r="24.6113"/>
	<circle fill="#39B54A" cx="1376.2793" cy="617.1677" r="20.928"/>
	<circle fill="#39B54A" cx="305.4393" cy="711.0309" r="23.8355"/>
	<circle fill="#39B54A" cx="1232.1536" cy="1374.0839" r="26.0165"/>
	<circle fill="#39B54A" cx="1927.2698" cy="744.3539" r="20.928"/>
	<circle fill="#39B54A" cx="1982.5002" cy="768.4839" r="20.928"/>
	<circle fill="#39B54A" cx="1720.3909" cy="1319.1243" r="22.6229"/>
	<circle fill="#39B54A" cx="1668.424" cy="730.5891" r="20.928"/>
	<circle fill="#39B54A" cx="1793.936" cy="229.4097" r="20.928"/>
	<circle fill="#39B54A" cx="1464.9047" cy="915.509" r="20.928"/>
	<circle fill="#39B54A" cx="1664.9686" cy="1324.777" r="21.5026"/>
	<circle fill="#39B54A" cx="1264.2245" cy="1548.8065" r="21.2594"/>
	<circle fill="#39B54A" cx="2181.0061" cy="778.3005" r="20.928"/>
	<circle fill="#39B54A" cx="2160.425" cy="856.7042" r="20.928"/>
	<circle fill="#39B54A" cx="2225.1082" cy="805.7418" r="15.0478"/>
	<circle fill="#39B54A" cx="2181.9861" cy="819.4625" r="15.0478"/>
	<circle fill="#39B54A" cx="2257.4497" cy="814.5622" r="15.0478"/>
	<circle fill="#39B54A" cx="683.3925" cy="894.7957" r="20.928"/>
	<circle fill="#39B54A" cx="1889.1388" cy="1230.0363" r="20.928"/>
	<circle fill="#39B54A" cx="989.8323" cy="601.1625" r="28.2776"/>
	<circle fill="#39B54A" cx="2034.9598" cy="458.2439" r="20.928"/>
	<circle fill="#39B54A" cx="1660.2645" cy="628.5214" r="20.928"/>
	<circle fill="#39B54A" cx="1892.3964" cy="1294.0741" r="29.1979"/>
	<circle fill="#39B54A" cx="1431.8411" cy="636.2877" r="20.928"/>
	<circle fill="#39B54A" cx="1594.5228" cy="985.9167" r="24.1175"/>
	<circle fill="#39B54A" cx="1495.3678" cy="496.7692" r="21.2129"/>
	<circle fill="#39B54A" cx="1891.2153" cy="401.1489" r="21.6633"/>
	<circle fill="#39B54A" cx="930.417" cy="618.7035" r="33.6727"/>
	<circle fill="#39B54A" cx="453.19" cy="589.636" r="21.9479"/>
	<circle fill="#39B54A" cx="1688.9147" cy="228.309" r="27.1725"/>
	<circle fill="#39B54A" cx="886.2079" cy="678.2167" r="20.928"/>
	<circle fill="#39B54A" cx="918.5494" cy="710.5583" r="20.928"/>
	<circle fill="#39B54A" cx="813.6844" cy="901.6674" r="20.928"/>
	<circle fill="#39B54A" cx="233.1193" cy="844.2825" r="21.0361"/>
	<circle fill="#39B54A" cx="1730.6611" cy="1015.5262" r="23.3745"/>
	<circle fill="#39B54A" cx="1585.257" cy="272.6497" r="20.928"/>
	<circle fill="#39B54A" cx="1428.5265" cy="871.9003" r="22.632"/>
	<circle fill="#39B54A" cx="1696.9711" cy="146.1603" r="25.2724"/>
	<circle fill="#39B54A" cx="528.8469" cy="597.6458" r="21.0238"/>
	<circle fill="#39B54A" cx="1344.3444" cy="1385.3571" r="28.8867"/>
	<circle fill="#39B54A" cx="1496.3423" cy="259.4885" r="21.0827"/>
	<circle fill="#39B54A" cx="2298.21" cy="855.3658" r="20.928"/>
	<circle fill="#39B54A" cx="1534.5333" cy="1494.8047" r="25.2881"/>
	<circle fill="#39B54A" cx="1910.9517" cy="605.4715" r="20.928"/>
	<circle fill="#39B54A" cx="205.917" cy="1006.0564" r="20.928"/>
	<circle fill="#39B54A" cx="2014.2839" cy="1016.53" r="24.4698"/>
	<circle fill="#39B54A" cx="663.6704" cy="952.1844" r="22.5813"/>
	<circle fill="#39B54A" cx="1136.912" cy="122.7085" r="21.986"/>
	<circle fill="#39B54A" cx="1459.8041" cy="397.4469" r="20.928"/>
	<circle fill="#39B54A" cx="1403.9414" cy="394.5067" r="20.928"/>
	<circle fill="#39B54A" cx="1445.1034" cy="443.509" r="20.928"/>
	<circle fill="#39B54A" cx="1555.2208" cy="1451.9736" r="22.2773"/>
	<circle fill="#39B54A" cx="2294.0552" cy="803.8419" r="20.928"/>
	<circle fill="#39B54A" cx="1969.4126" cy="722.3259" r="20.928"/>
	<circle fill="#39B54A" cx="1331.7947" cy="1328.824" r="23.8843"/>
	<circle fill="#39B54A" cx="1350.3688" cy="51.2096" r="28.765"/>
	<circle fill="#39B54A" cx="1870.4567" cy="906.7389" r="26.8905"/>
	<circle fill="#39B54A" cx="1807.7336" cy="904.7788" r="26.8905"/>
	<circle fill="#39B54A" cx="1634.2654" cy="1095.8879" r="26.8905"/>
	<circle fill="#39B54A" cx="1630.3452" cy="1036.1051" r="26.8905"/>
	<circle fill="#39B54A" cx="1696.9884" cy="1102.7483" r="26.8905"/>
	<circle fill="#39B54A" cx="1312.7314" cy="1529.9137" r="21.8015"/>
	<circle fill="#39B54A" cx="1220.9603" cy="209.9225" r="20.928"/>
	<circle fill="#39B54A" cx="686.0029" cy="827.0429" r="24.8601"/>
	<circle fill="#39B54A" cx="1228.5286" cy="984.1373" r="20.928"/>
	<circle fill="#39B54A" cx="1299.1694" cy="1359.5446" r="20.928"/>
	<circle fill="#39B54A" cx="2000.6809" cy="1156.2583" r="23.8246"/>
	<circle fill="#39B54A" cx="1146.4082" cy="652.9531" r="23.0673"/>
	<circle fill="#39B54A" cx="714.2073" cy="595.1304" r="23.0673"/>
	<circle fill="#39B54A" cx="1150.3284" cy="702.9355" r="23.0673"/>
	<circle fill="#39B54A" cx="1871.7754" cy="764.1283" r="24.3802"/>
	<circle fill="#39B54A" cx="650.4532" cy="1012.1427" r="25.9097"/>
	<circle fill="#39B54A" cx="2223.5759" cy="962.0686" r="20.928"/>
	<circle fill="#39B54A" cx="1105.0992" cy="625.321" r="20.928"/>
	<circle fill="#39B54A" cx="459.1978" cy="732.1892" r="20.928"/>
	<circle fill="#39B54A" cx="197.506" cy="898.6283" r="23.824"/>
	<circle fill="#39B54A" cx="1727.8932" cy="1387.604" r="21.4008"/>
	<circle fill="#39B54A" cx="1094.4359" cy="42.2601" r="23.4026"/>
	<circle fill="#39B54A" cx="1109.2991" cy="84.89" r="15.5623"/>
	<circle fill="#39B54A" cx="2189.3345" cy="692.2333" r="23.1155"/>
	<circle fill="#39B54A" cx="1499.5015" cy="788.1857" r="13.959"/>
	<circle fill="#39B54A" cx="1385.816" cy="849.9286" r="13.959"/>
	<circle fill="#39B54A" cx="1370.1353" cy="807.7866" r="13.959"/>
	<circle fill="#39B54A" cx="1236.1125" cy="1514.6038" r="13.959"/>
	<circle fill="#39B54A" cx="1584.3654" cy="1067.5891" r="13.959"/>
	<circle fill="#39B54A" cx="742.1033" cy="802.5831" r="16.3689"/>
	<circle fill="#39B54A" cx="1693.3796" cy="603.3639" r="19.6829"/>
	<circle fill="#39B54A" cx="905.1014" cy="804.9373" r="17.1354"/>
	<circle fill="#39B54A" cx="1570.5942" cy="829.9611" r="18.0949"/>
	<circle fill="#39B54A" cx="920.8875" cy="833.5024" r="15.0814"/>
	<circle fill="#39B54A" cx="1873.6235" cy="1001.189" r="15.6238"/>
	<circle fill="#39B54A" cx="1576.028" cy="357.0947" r="14.3277"/>
	<circle fill="#39B54A" cx="1658.7622" cy="371.6743" r="14.3277"/>
	<circle fill="#39B54A" cx="1614.6602" cy="368.7343" r="14.3277"/>
	<circle fill="#39B54A" cx="1549.9771" cy="134.5029" r="12.3676"/>
	<circle fill="#39B54A" cx="524.7037" cy="923.6479" r="14.582"/>
	<circle fill="#39B54A" cx="1342.0969" cy="1008.0086" r="30.0437"/>
	<circle fill="#39B54A" cx="1073.4648" cy="1542.7112" r="22.2662"/>
	<circle fill="#39B54A" cx="1841.0295" cy="254.3439" r="23.5751"/>
	<circle fill="#39B54A" cx="1109.5497" cy="1484.3188" r="17.263"/>
	<circle fill="#39B54A" cx="1327.7196" cy="944.5767" r="13.959"/>
	<circle fill="#39B54A" cx="1331.6398" cy="901.4546" r="13.959"/>
	<circle fill="#39B54A" cx="1292.4379" cy="927.9158" r="13.959"/>
	<circle fill="#39B54A" cx="1235.5952" cy="946.5367" r="13.959"/>
	<circle fill="#39B54A" cx="1844.9661" cy="1333.6636" r="13.959"/>
	<circle fill="#39B54A" cx="1510.4202" cy="343.8818" r="13.959"/>
	<circle fill="#39B54A" cx="1562.6018" cy="1551.9644" r="13.959"/>
	<circle fill="#39B54A" cx="1532.4075" cy="788.8317" r="18.9534"/>
	<circle fill="#39B54A" cx="1573.5695" cy="746.6896" r="18.9534"/>
	<circle fill="#39B54A" cx="1753.1753" cy="1292.7985" r="15.6568"/>
	<circle fill="#39B54A" cx="395.6272" cy="923.2315" r="13.959"/>
	<circle fill="#39B54A" cx="2194.8616" cy="638.119" r="13.959"/>
	<circle fill="#39B54A" cx="1535.4021" cy="581.1888" r="13.959"/>
	<circle fill="#39B54A" cx="1766.2645" cy="1148.9976" r="27.4405"/>
	<circle fill="#39B54A" cx="1031.9697" cy="787.755" r="14.1431"/>
	<circle fill="#39B54A" cx="1067.2515" cy="775.9944" r="14.1431"/>
	<circle fill="#39B54A" cx="953.566" cy="956.3231" r="14.1431"/>
	<circle fill="#39B54A" cx="1348.8544" cy="1555.2405" r="22.3154"/>
	<circle fill="#39B54A" cx="1656.1437" cy="843.5208" r="14.8647"/>
	<circle fill="#39B54A" cx="1670.8444" cy="687.6933" r="14.8647"/>
	<circle fill="#39B54A" cx="1712.9863" cy="719.0547" r="14.8647"/>
	<circle fill="#39B54A" cx="1266.0831" cy="1424.4359" r="13.959"/>
	<circle fill="#39B54A" cx="2237.6846" cy="650.7057" r="29.4453"/>
	<circle fill="#39B54A" cx="1683.692" cy="1047.6721" r="15.3259"/>
	<circle fill="#39B54A" cx="1483.7853" cy="459.943" r="17.3917"/>
	<circle fill="#39B54A" cx="1153.4518" cy="760.2089" r="13.959"/>
	<circle fill="#39B54A" cx="1658.8572" cy="161.4989" r="15.5111"/>
	<circle fill="#39B54A" cx="1279.3877" cy="1391.7892" r="16.9011"/>
	<circle fill="#39B54A" cx="1781.5645" cy="1421.0835" r="22.4882"/>
	<circle fill="#39B54A" cx="1809.8798" cy="783.5504" r="13.959"/>
	<circle fill="#39B54A" cx="1841.2413" cy="660.0645" r="13.959"/>
	<circle fill="#39B54A" cx="1851.0417" cy="715.9271" r="13.959"/>
	<circle fill="#39B54A" cx="1824.5804" cy="751.2088" r="13.959"/>
	<circle fill="#39B54A" cx="1426.0404" cy="598.8658" r="16.9408"/>
	<circle fill="#39B54A" cx="1464.0599" cy="608.8456" r="16.9408"/>
	<circle fill="#39B54A" cx="1467.2024" cy="663.5488" r="16.9408"/>
	<circle fill="#39B54A" cx="994.0584" cy="763.8407" r="23.4917"/>
	<circle fill="#39B54A" cx="1668.7562" cy="189.2567" r="13.959"/>
	<circle fill="#39B54A" cx="863.5025" cy="803.3439" r="15.5722"/>
	<circle fill="#39B54A" cx="1250.3639" cy="1016.693" r="14.4293"/>
	<circle fill="#39B54A" cx="1743.765" cy="1226.1251" r="14.7353"/>
	<circle fill="#39B54A" cx="1479.8921" cy="228.5483" r="13.959"/>
	<circle fill="#39B54A" cx="1439.7101" cy="224.6282" r="13.959"/>
	<circle fill="#39B54A" cx="1666.9502" cy="509.3608" r="14.8229"/>
	<circle fill="#39B54A" cx="1685.7319" cy="1374.6808" r="14.1822"/>
	<circle fill="#39B54A" cx="1874.6454" cy="610.6429" r="15.7448"/>
	<circle fill="#39B54A" cx="1294.8866" cy="44.3898" r="13.959"/>
	<circle fill="#39B54A" cx="1543.9606" cy="1409.8798" r="21.2968"/>
	<circle fill="#39B54A" cx="1397.1958" cy="1417.7189" r="19.9748"/>
	<circle fill="#39B54A" cx="1291.9213" cy="890.3027" r="16.8797"/>
	<circle fill="#39B54A" cx="1436.896" cy="998.9797" r="31.6877"/>
	<circle fill="#39B54A" cx="1735.0525" cy="155.5884" r="13.959"/>
	<circle fill="#39B54A" cx="662.0131" cy="581.9564" r="14.2682"/>
	<circle fill="#39B54A" cx="1171.4233" cy="1447.5851" r="14.6165"/>
	<circle fill="#39B54A" cx="2346.1831" cy="844.3758" r="28.2878"/>
	<circle fill="#39B54A" cx="1733.356" cy="1259.14" r="19.8816"/>
	<circle fill="#39B54A" cx="1404.312" cy="1208.12" r="30.4077"/>
	<circle fill="#39B54A" cx="192.4926" cy="849.0869" r="13.959"/>
	<circle fill="#39B54A" cx="1405.5161" cy="1450.6168" r="13.959"/>
	<circle fill="#39B54A" cx="1453.6239" cy="257.7417" r="13.959"/>
	<circle fill="#39B54A" cx="1423.2424" cy="267.5422" r="13.959"/>
	<circle fill="#39B54A" cx="1386.9807" cy="290.0834" r="13.959"/>
	<circle fill="#39B54A" cx="1214.7727" cy="623.4406" r="13.959"/>
	<circle fill="#39B54A" cx="1189.2915" cy="657.7422" r="13.959"/>
	<circle fill="#39B54A" cx="1245.1542" cy="599.9194" r="13.959"/>
	<circle fill="#39B54A" cx="1309.8373" cy="691.0638" r="13.959"/>
	<circle fill="#39B54A" cx="1344.1389" cy="681.2633" r="13.959"/>
	<circle fill="#39B54A" cx="673.1172" cy="790.425" r="13.959"/>
	<circle fill="#39B54A" cx="1634.589" cy="236.1816" r="19.9679"/>
	<circle fill="#39B54A" cx="1175.6185" cy="904.0541" r="16.4508"/>
	<circle fill="#39B54A" cx="1989.4415" cy="383.0347" r="15.7128"/>
	<circle fill="#39B54A" cx="2031.8026" cy="744.5446" r="15.2051"/>
	<circle fill="#39B54A" cx="2105.3062" cy="658.3004" r="15.2051"/>
	<circle fill="#39B54A" cx="2146.468" cy="662.2206" r="15.2051"/>
	<circle fill="#39B54A" cx="2079.825" cy="619.0986" r="15.2051"/>
	<circle fill="#39B54A" cx="2038.663" cy="605.3779" r="15.2051"/>
	<circle fill="#39B54A" cx="2006.3214" cy="504.4331" r="15.2051"/>
	<circle fill="#39B54A" cx="1889.6958" cy="448.5704" r="15.2051"/>
	<circle fill="#39B54A" cx="1846.5737" cy="457.3909" r="15.2051"/>
	<circle fill="#39B54A" cx="1728.9681" cy="445.6302" r="15.2051"/>
	<circle fill="#39B54A" cx="1759.3496" cy="410.3485" r="15.2051"/>
	<circle fill="#39B54A" cx="1100.1737" cy="1567.1836" r="13.959"/>
	<circle fill="#39B54A" cx="550.3093" cy="899.6187" r="13.959"/>
	<circle fill="#39B54A" cx="206.4746" cy="790.3073" r="17.1119"/>
	<circle fill="#39B54A" cx="964.1022" cy="804.966" r="13.959"/>
	<circle fill="#39B54A" cx="957.2419" cy="848.0881" r="13.959"/>
	<circle fill="#39B54A" cx="1547.209" cy="1046.8433" r="15.615"/>
	<circle fill="#39B54A" cx="1243.094" cy="51.3053" r="21.4893"/>
	<circle fill="#39B54A" cx="1642.244" cy="550.6454" r="24.9933"/>
	<circle fill="#39B54A" cx="1906.3031" cy="1038.6302" r="13.959"/>
	<circle fill="#39B54A" cx="1928.8844" cy="358.1722" r="33.2341"/>
	<circle fill="#39B54A" cx="1192.1503" cy="853.1392" r="14.0748"/>
	<circle fill="#39B54A" cx="1736.3385" cy="1432.452" r="13.959"/>
	<circle fill="#39B54A" cx="973.7561" cy="913.8582" r="20.9468"/>
	<circle fill="#39B54A" cx="772.3495" cy="800.3582" r="13.959"/>
	<circle fill="#39B54A" cx="793.9106" cy="687.6528" r="13.959"/>
	<circle fill="#39B54A" cx="1199.3145" cy="1409.2599" r="14.0559"/>
	<circle fill="#39B54A" cx="1735.8138" cy="954.3882" r="15.679"/>
	<circle fill="#39B54A" cx="1488.3354" cy="1364.8879" r="23.4406"/>
	<circle fill="#39B54A" cx="1183.5736" cy="794.0997" r="14.9293"/>
	<circle fill="#39B54A" cx="1571.5009" cy="1016.2452" r="13.959"/>
	<circle fill="#39B54A" cx="1116.7004" cy="897.9966" r="24.4514"/>
	<circle fill="#39B54A" cx="1086.4119" cy="998.9797" r="24.4514"/>
	<circle fill="#39B54A" cx="1448.1658" cy="766.6684" r="13.959"/>
	<circle fill="#39B54A" cx="1199.8568" cy="764.8311" r="18.5639"/>
	<circle fill="#39B54A" cx="1849.9373" cy="1301.8036" r="13.959"/>
	<circle fill="#39B54A" cx="1523.7688" cy="476.022" r="13.959"/>
	<circle fill="#39B54A" cx="1182.6207" cy="729.1749" r="13.959"/>
	<circle fill="#39B54A" cx="603.0122" cy="790.1952" r="20.8123"/>
	<circle fill="#39B54A" cx="445.2247" cy="780.3947" r="20.8123"/>
	<circle fill="#39B54A" cx="535.389" cy="846.0579" r="20.8123"/>
	<circle fill="#39B54A" cx="469.7259" cy="832.3372" r="20.8123"/>
	<circle fill="#39B54A" cx="436.4043" cy="897.0203" r="20.8123"/>
	<circle fill="#39B54A" cx="358.9806" cy="904.8607" r="20.8123"/>
</g>
</svg>
